<?xml version="1.0" encoding="UTF-8" standalone="no"?>
<svg
   xmlns:dc="http://purl.org/dc/elements/1.1/"
   xmlns:cc="http://creativecommons.org/ns#"
   xmlns:rdf="http://www.w3.org/1999/02/22-rdf-syntax-ns#"
   xmlns:svg="http://www.w3.org/2000/svg"
   xmlns="http://www.w3.org/2000/svg"
   xmlns:sodipodi="http://sodipodi.sourceforge.net/DTD/sodipodi-0.dtd"
   xmlns:inkscape="http://www.inkscape.org/namespaces/inkscape"
   version="1.1"
   id="svg885"
   width="469.22302"
   height="469.22302"
   viewBox="0 0 469.22302 469.22302"
   sodipodi:docname="luontoliitto.svg"
   inkscape:version="1.0.2 (e86c870879, 2021-01-15)">
  <metadata
     id="metadata891">
    <rdf:RDF>
      <cc:Work
         rdf:about="">
        <dc:format>image/svg+xml</dc:format>
        <dc:type
           rdf:resource="http://purl.org/dc/dcmitype/StillImage" />
        <dc:title></dc:title>
      </cc:Work>
    </rdf:RDF>
  </metadata>
  <defs
     id="defs889" />
  <sodipodi:namedview
     pagecolor="#ffffff"
     bordercolor="#666666"
     borderopacity="1"
     objecttolerance="10"
     gridtolerance="10"
     guidetolerance="10"
     inkscape:pageopacity="0"
     inkscape:pageshadow="2"
     inkscape:window-width="1920"
     inkscape:window-height="1029"
     id="namedview887"
     showgrid="false"
     inkscape:zoom="0.63679472"
     inkscape:cx="1.8420496"
     inkscape:cy="296.13567"
     inkscape:window-x="0"
     inkscape:window-y="26"
     inkscape:window-maximized="1"
     inkscape:current-layer="g893" />
  <g
     inkscape:groupmode="layer"
     inkscape:label="Image"
     id="g893"
     transform="translate(38.124286,22.611701)">
    <path
       style="fill:#000000"
       d="m 70.487227,366.80589 c -10.725,-1.92093 -20.0859,-3.67425 -20.80199,-3.89627 -0.90467,-0.28049 0.56071,-3.92001 4.80199,-11.92655 4.29616,-8.11014 5.71836,-11.65707 4.80199,-11.97599 -0.7161,-0.24922 -7.15199,-2.09858 -14.30199,-4.10969 -7.15,-2.01111 -15.45627,-4.42841 -18.45837,-5.37177 l -5.45836,-1.71521 13.95836,-14.24496 c 7.6771,-7.83472 14.09802,-14.62733 14.2687,-15.09467 0.17069,-0.46735 -9.05431,-3.87246 -20.5,-7.56692 -11.44568,-3.69446 -21.6214743,-7.12899 -22.6128713,-7.6323 -1.897512,-0.96331 -1.750141,-1.07555 25.0487813,-19.07743 5.08544,-3.41608 9.24794,-6.5597 9.25,-6.98581 0.002,-0.42611 -1.00874,-1.1625 -2.24624,-1.63641 -1.2375,-0.47391 -6.975,-3.09731 -12.75,-5.82977 -5.775,-2.73247 -13.312501,-6.25223 -16.7500013,-7.82168 -3.4375,-1.56946 -6.25,-3.17417 -6.25,-3.56602 0,-0.39185 1.451953,-1.03136 3.226562,-1.42113 1.774609,-0.38977 9.7726563,-2.84238 17.7734393,-5.45024 8.00078,-2.60786 15.99883,-5.06047 17.77344,-5.45024 1.77461,-0.38977 3.22656,-1.12171 3.22656,-1.62654 0,-0.50483 -8.31306,-6.43157 -18.47346,-13.17054 -10.160403,-6.73898 -18.4854033,-12.508 -18.5000003,-12.82006 -0.0287,-0.61353 1.425697,-1.07409 28.4734603,-9.01657 9.9,-2.9071 18.3953,-5.62028 18.87845,-6.0293 0.48315,-0.40901 -5.52321,-8.45699 -13.34746,-17.88441 -7.82425,-9.42741 -14.05859,-17.30807 -13.85409,-17.51257 0.2045,-0.2045 9.53725,0.93069 20.73945,2.52264 11.2022,1.59196 23.45554,3.19874 27.22965,3.57064 l 6.86202,0.67616 -2.41467,-5.3796 c -7.32011,-16.30833 -15.72331,-37.08298 -15.20818,-37.59812 0.32633,-0.32632 2.28566,0.0892 4.35408,0.92327 2.06841,0.83413 14.01697,5.68557 26.55234,10.78099 12.535383,5.09542 23.039513,9.01648 23.342513,8.71348 0.30301,-0.303 -1.98671,-10.75879 -5.08825,-23.23509 -3.10154,-12.476304 -5.50567,-23.017454 -5.34251,-23.424784 0.16316,-0.40734 13.34666,6.60934 29.29666,15.592614 15.95,8.98327 29.48093,16.34105 30.06873,16.35062 0.65549,0.0107 1.74318,-6.90868 2.81297,-17.894654 2.49641,-25.63645 1.91402,-24.68863 9.1183,-14.83961 16.85198,23.038454 38.97793,45.295624 57.32236,57.662324 10.59063,7.13956 17.85462,10.07744 33.42764,13.51961 3.91957,0.86636 3.56152,-0.78516 -2.05657,-9.48613 -22.73662,-35.21314 -35.18786,-54.766054 -35.66246,-56.002814 -0.37088,-0.96652 0.64102,-2.11767 2.95866,-3.3658 1.93728,-1.04329 3.66194,-1.71209 3.83259,-1.48621 0.17065,0.22588 7.65108,12.33569 16.62317,26.910694 8.9721,14.575 17.30772,28.075 18.52361,30 1.21589,1.925 2.99373,4.77654 3.95076,6.33676 0.95702,1.56022 1.95655,2.62026 2.22117,2.35565 0.26461,-0.26462 -2.07623,-8.51616 -5.20187,-18.33677 -3.12564,-9.8206 -7.83036,-24.60564 -10.45492,-32.855644 -2.62456,-8.25 -6.61968,-20.75928 -8.87804,-27.7984 -2.25835,-7.03912 -4.1061,-13.36827 -4.1061,-14.06478 0,-0.69652 1.5564,-2.00859 3.45867,-2.91572 l 3.45868,-1.64933 4.46956,14.21412 c 2.45826,7.81776 9.27703,29.73911 15.15282,48.714114 5.87579,18.975 11.06941,35.175 11.54136,36 0.54611,0.95463 0.87564,-0.86327 0.90636,-5 0.0265,-3.575 0.7072,-21.125 1.51255,-39 0.80535,-17.875004 1.47232,-33.949634 1.48214,-35.721414 0.0154,-2.77929 0.4639,-3.3435 3.26786,-4.11103 1.7875,-0.4893 3.52989,-0.61466 3.87197,-0.27859 0.34209,0.33607 0.0525,12.76103 -0.64343,27.61103 -0.69598,14.850004 -1.54015,33.641644 -1.87594,41.759204 l -0.61054,14.7592 5.38233,-0.63258 c 2.96028,-0.34793 8.46348,-1.13957 12.22934,-1.7592 l 6.847,-1.12662 1.84194,-10 c 1.01307,-5.5 2.042,-10.99967 2.28653,-12.22148 0.36314,-1.81451 2.0145,-2.70034 9.01404,-4.83533 4.71319,-1.43761 8.68042,-2.46294 8.81606,-2.27852 0.13564,0.18443 1.21248,4.38533 2.39299,9.33533 l 2.14636,9 -4.35326,12.5981 -4.35326,12.59809 -29.62107,37.3031 c -16.29158,20.5167 -29.62106,38.19083 -29.62106,39.27584 0,2.24989 5.39346,36.28903 7.12621,44.97487 0.63089,3.1625 1.40646,5.75 1.72349,5.75 0.31703,0 6.5464,-3.9375 13.84306,-8.75 9.6615,-6.37222 13.26865,-9.29349 13.27398,-10.75 0.004,-1.1 -0.88101,-7.625 -1.96674,-14.5 -1.08573,-6.875 -1.9799,-12.7952 -1.98703,-13.156 -0.0156,-0.78954 8.68143,-3.844 10.94512,-3.844 0.881,0 3.10556,1.59426 4.94347,3.5428 1.83792,1.94853 3.76398,3.40202 4.28015,3.22996 0.51616,-0.17205 2.75261,-4.35381 4.96987,-9.29279 2.21726,-4.93898 4.39917,-9.36642 4.84868,-9.83874 0.44951,-0.47233 3.55834,-0.54065 6.90851,-0.15182 l 6.09123,0.70696 v 8.40182 c 0,4.62099 0.3375,8.38535 0.75,8.36522 0.4125,-0.0201 2.99447,-2.94512 5.73772,-6.5 2.74324,-3.55487 5.3457,-6.46341 5.78324,-6.46341 0.43754,0 3.04789,1.14136 5.80078,2.53635 4.93302,2.49976 4.99556,2.58994 4.33413,6.25 -0.36912,2.04251 -1.50564,6.41365 -2.52559,9.71365 -2.69069,8.70551 -2.41182,9.13127 3.0085,4.59312 2.68883,-2.25122 5.27633,-4.09005 5.75,-4.08629 1.9173,0.0152 5.36122,6.74861 5.36122,10.48202 0,4.94559 -6.32803,18.03608 -12.43736,25.72857 -8.14066,10.25022 -24.75208,22.39373 -39.06264,28.55613 -2.75,1.1842 -11.525,4.67838 -19.5,7.76483 -7.975,3.08645 -17.58999,6.83174 -21.36664,8.32286 l -6.86663,2.71114 -10.63337,18.19467 -10.63336,18.19467 -90,-0.0731 -90.000003,-0.0731 -19.5,-3.4926 z M 108.98723,258.48307 v -2.5 l -17.250003,-0.27361 -17.25,-0.27362 v 3.04723 3.04723 l 17.25,-0.27362 17.250003,-0.27361 z M 86.737227,232.79614 c 3.83195,-1.65215 4.40865,-2.72398 2.81799,-5.2373 -0.75379,-1.19103 -2.18403,-0.92093 -8.73469,1.6495 -4.30832,1.69055 -11.3208,4.30231 -15.5833,5.8039 -7.73428,2.72463 -9.35777,4.46307 -6.67413,7.1467 0.98991,0.98991 14.82943,-3.60923 28.17413,-9.3628 z m 41.750003,-15.79477 c 0,-1.01212 -28.881843,-14.5183 -31.046193,-14.5183 -0.5246,0 -1.02131,0.675 -1.10381,1.5 -0.0825,0.825 -0.195,1.97496 -0.25,2.55546 -0.055,0.5805 6.650003,4.12354 14.900003,7.87342 13.27823,6.03536 15.14348,6.63837 16.25,5.25341 0.6875,-0.8605 1.25,-2.0593 1.25,-2.66399 z m 129.70002,-17.62944 c 1.76,-0.55603 4.62275,-2.63139 6.36166,-4.61189 2.83805,-3.23236 3.11375,-4.09944 2.69364,-8.47158 -0.31682,-3.29721 -1.24127,-5.69917 -2.86166,-7.43534 -5.07328,-5.43576 -14.39133,-8.17588 -21.30827,-6.26602 -5.36654,1.48178 -11.50913,7.48662 -12.21752,11.94355 -1.91105,12.0236 12.12558,19.64544 27.33215,14.84128 z m -6.93924,-8.1939 c -3.70657,-2.30723 -6.74407,-4.47526 -6.75,-4.81784 -0.006,-0.34259 0.91028,-2.70509 2.03601,-5.25 2.2935,-5.18484 2.93748,-5.35254 10.45321,-2.72226 4.78792,1.67563 5.03934,1.9503 5.92754,6.47572 0.87667,4.46667 0.76698,4.88448 -2,7.61761 l -2.92754,2.89173 z M 130.48723,172.48307 v -3 h -17 -17.000003 v 3 3 h 17.000003 17 z m 45,-7.21575 c 0,-0.45842 -1.9125,-1.96845 -4.25,-3.35563 -2.3375,-1.38718 -8.75,-5.19377 -14.25,-8.4591 l -10,-5.93695 -1.775,2.12538 c -0.97626,1.16895 -1.61838,2.28201 -1.42694,2.47345 0.19144,0.19143 6.84019,4.12267 14.77501,8.73608 12.70293,7.38565 14.5763,8.20053 15.67693,6.81914 0.6875,-0.86289 1.25,-1.94395 1.25,-2.40237 z"
       id="path897" />
  </g>
</svg>
